<?xml version="1.0" encoding="iso-8859-1"?>
<!-- Generator: Adobe Illustrator 19.0.0, SVG Export Plug-In . SVG Version: 6.00 Build 0)  -->
<svg version="1.1" id="Layer_1" xmlns="http://www.w3.org/2000/svg" xmlns:xlink="http://www.w3.org/1999/xlink" x="0px" y="0px"
	 viewBox="0 0 512 512" style="enable-background:new 0 0 512 512;" xml:space="preserve">
<path style="fill:#DB2B42;" d="M385.36,145.36C385.36,74.032,327.328,16,256,16S126.64,74.032,126.64,145.36
	c0,11.728,1.568,23.36,4.688,34.592c1.216,4.416,2.672,8.752,4.32,12.912l3.904,8.848L256,416.896l116.624-215.52l3.712-8.432
	c1.552-3.888,3.088-8.432,4.352-12.992C383.776,168.72,385.36,157.088,385.36,145.36z M256,208.352
	c-35.52,0-64.304-28.8-64.304-64.304c0-35.52,28.8-64.304,64.304-64.304s64.304,28.8,64.304,64.304
	C320.304,179.552,291.52,208.352,256,208.352z"/>
<path d="M390.976,199.392c1.968-4.928,3.68-10,5.12-15.168c3.424-12.368,5.264-25.392,5.264-38.864C401.36,65.072,336.272,0,256,0
	S110.64,65.072,110.64,145.36c0,13.456,1.84,26.496,5.264,38.864c1.376,4.96,2.992,9.808,4.864,14.528l4.4,10.016L256,450.512
	l130.992-242.096L390.976,199.392z M380.672,179.952c-1.264,4.576-2.8,9.104-4.352,12.992l-3.712,8.432L256,416.896L139.552,201.712
	l-3.904-8.848c-1.648-4.16-3.104-8.512-4.32-12.912c-3.104-11.232-4.688-22.864-4.688-34.592C126.64,74.032,184.672,16,256,16
	s129.36,58.032,129.36,129.36C385.36,157.088,383.776,168.72,380.672,179.952z"/>
<path d="M256,79.728c-35.52,0-64.304,28.8-64.304,64.304c0,35.52,28.8,64.304,64.304,64.304s64.304-28.8,64.304-64.304
	C320.304,108.512,291.52,79.728,256,79.728z M256,192.352c-26.64,0-48.304-21.664-48.304-48.304S229.376,95.744,256,95.744
	s48.304,21.664,48.304,48.304C304.304,170.672,282.64,192.352,256,192.352z"/>
<rect x="151.184" y="496" width="209.6" height="16"/>
<circle style="fill:#FFFFFF;" cx="256" cy="144" r="48.32"/>
<g>
</g>
<g>
</g>
<g>
</g>
<g>
</g>
<g>
</g>
<g>
</g>
<g>
</g>
<g>
</g>
<g>
</g>
<g>
</g>
<g>
</g>
<g>
</g>
<g>
</g>
<g>
</g>
<g>
</g>
</svg>
