<?xml version="1.0" standalone="no"?>
<!DOCTYPE svg PUBLIC "-//W3C//DTD SVG 20010904//EN"
 "http://www.w3.org/TR/2001/REC-SVG-20010904/DTD/svg10.dtd">
<svg version="1.0" xmlns="http://www.w3.org/2000/svg"
 width="800.000000pt" height="600.000000pt" viewBox="0 0 800.000000 600.000000"
 preserveAspectRatio="xMidYMid meet">
<metadata>
Created by potrace 1.15, written by Peter Selinger 2001-2017
</metadata>
<g transform="translate(0.000000,600.000000) scale(0.100000,-0.100000)"
fill="#000000" stroke="none">
<path d="M0 3000 l0 -3000 4000 0 4000 0 0 3000 0 3000 -4000 0 -4000 0 0
-3000z m4490 401 l0 -149 -192 -4 c-135 -2 -200 -7 -216 -16 l-23 -13 25 -29
c13 -17 34 -55 45 -85 20 -52 21 -77 21 -355 l0 -300 -151 0 -150 0 3 318 c3
281 5 321 21 350 17 32 18 32 43 15 20 -12 24 -21 18 -37 -4 -12 -9 -146 -11
-298 l-4 -278 80 0 81 0 0 263 c-1 187 -5 272 -14 298 -20 56 -61 103 -118
135 -53 29 -54 29 -245 32 l-193 4 0 149 0 149 490 0 490 0 0 -149z"/>
<path d="M3580 3401 l0 -79 163 -4 c138 -3 169 -7 210 -25 l47 -22 48 22 c40
18 71 22 210 25 l162 4 0 79 0 79 -420 0 -420 0 0 -79z"/>
</g>
</svg>
